<svg xmlns="http://www.w3.org/2000/svg" width="151.059" height="35" viewBox="0 0 151.059 35">
  <g id="Group_8629" data-name="Group 8629" transform="translate(-2570.099 -7351)">
    <path id="Path_11571" data-name="Path 11571" d="M19.459-75.411l-3.551,3.647v5.726H11.75V-88.43h4.158v11.484L26.976-88.43h4.67l-9.4,10.012,9.98,12.379H27.36ZM35.069-88.43h4.158v22.391H35.069Zm30.1,0v22.391H61.747L49.4-81.2v15.162H45.273V-88.43H48.7L61.043-73.268V-88.43Zm21.3,10.94h3.934v8.925a12.51,12.51,0,0,1-4.03,2.111,15.465,15.465,0,0,1-4.734.736,12.769,12.769,0,0,1-6.174-1.487,11.051,11.051,0,0,1-4.318-4.11,11.313,11.313,0,0,1-1.567-5.918,11.313,11.313,0,0,1,1.567-5.918,11.022,11.022,0,0,1,4.334-4.11,12.928,12.928,0,0,1,6.222-1.487,13.584,13.584,0,0,1,5.118.928A10.043,10.043,0,0,1,90.7-85.1l-2.623,2.559A8.413,8.413,0,0,0,81.9-85.1a8.723,8.723,0,0,0-4.206.992,7.231,7.231,0,0,0-2.879,2.783,8.007,8.007,0,0,0-1.04,4.094,7.881,7.881,0,0,0,1.04,4.03,7.454,7.454,0,0,0,2.879,2.815,8.438,8.438,0,0,0,4.174,1.024,9.007,9.007,0,0,0,4.606-1.152Zm19.864,11.771a12.769,12.769,0,0,1-6.174-1.487,11.015,11.015,0,0,1-4.318-4.126,11.337,11.337,0,0,1-1.567-5.9,11.337,11.337,0,0,1,1.567-5.9,11.015,11.015,0,0,1,4.318-4.126,12.769,12.769,0,0,1,6.174-1.487,12.769,12.769,0,0,1,6.174,1.487,11.051,11.051,0,0,1,4.318,4.11,11.313,11.313,0,0,1,1.567,5.918,11.313,11.313,0,0,1-1.567,5.918,11.051,11.051,0,0,1-4.318,4.11A12.769,12.769,0,0,1,106.338-65.719Zm0-3.647a8.077,8.077,0,0,0,4.03-1.008,7.288,7.288,0,0,0,2.815-2.815,8.066,8.066,0,0,0,1.024-4.046,8.066,8.066,0,0,0-1.024-4.046,7.288,7.288,0,0,0-2.815-2.815,8.077,8.077,0,0,0-4.03-1.008,8.077,8.077,0,0,0-4.03,1.008,7.288,7.288,0,0,0-2.815,2.815,8.066,8.066,0,0,0-1.024,4.046,8.066,8.066,0,0,0,1.024,4.046,7.288,7.288,0,0,0,2.815,2.815A8.077,8.077,0,0,0,106.338-69.365Z" transform="translate(2602.761 7448.003)"/>
    <g id="Group_8626" data-name="Group 8626" transform="translate(2570.099 7351)">
      <g id="Group_8601" data-name="Group 8601" transform="translate(0 0)">
        <circle id="Ellipse_64" data-name="Ellipse 64" cx="3.15" cy="3.15" r="3.15" transform="translate(20.959 16.459)"/>
        <g id="Group_8600" data-name="Group 8600">
          <path id="Path_1" data-name="Path 1" d="M284.277,7.043s-.1,1.126-.1,14.22V35h7.6l.163-.282c.09-.158,2.534-4.387,5.435-9.4s5.339-9.236,5.434-9.371a6.688,6.688,0,0,1,4.105-2.692,10.193,10.193,0,0,1,2.354-.062c.135.039.22-.1,2.365-3.818,1.222-2.117,2.23-3.875,2.241-3.9a14.041,14.041,0,0,0-3.221-.923,21.345,21.345,0,0,0-4-.1,14.859,14.859,0,0,0-5.271,1.526,15.363,15.363,0,0,0-5.9,5.181c-.237.361-.913,1.492-1.5,2.518l-1.07,1.864-.018-7.772L292.877,0Z" transform="translate(-284.176 -0.004)" fill="#61c34f"/>
          <path id="Path_2" data-name="Path 2" d="M320.757,53.057c-.018.028-1.019,1.768-2.236,3.875l-2.207,3.829.163.13c.085.073.45.326.811.568a15.168,15.168,0,0,0,6.584,2.456,17.452,17.452,0,0,0,5.124-.2,11.2,11.2,0,0,0,2.467-.783c-.011-.023-1.02-1.78-2.241-3.908a34.565,34.565,0,0,0-2.309-3.83,7.744,7.744,0,0,1-.845.062,6.477,6.477,0,0,1-4.894-1.881c-.406-.389-.382-.372-.417-.315" transform="translate(-301.767 -29.027)" fill="#61c34f"/>
        </g>
      </g>
    </g>
  </g>
</svg>
